<svg viewBox="0 0 196 39" fill="none" xmlns="http://www.w3.org/2000/svg">
<path d="M50.176 5.57602H40.132V30.776H44.092V22.424H50.176C56.044 22.424 59.428 19.256 59.428 14C59.428 8.74402 56.044 5.57602 50.176 5.57602ZM49.888 18.752H44.092V9.24802H49.888C53.56 9.24802 55.324 10.796 55.324 14C55.324 17.204 53.56 18.752 49.888 18.752Z" fill="currentColor"/>
<path d="M75.0368 13.892L74.8208 16.412H74.7128C73.7048 14.54 71.4728 13.496 68.9888 13.496C64.3088 13.496 60.6728 17.312 60.6728 22.316C60.6728 27.356 64.3088 31.172 68.9888 31.172C71.4728 31.172 73.7048 30.128 74.7128 28.256H74.8208L75.0368 30.776H78.4568V13.892H75.0368ZM64.4888 22.316C64.4888 19.22 66.5408 16.88 69.6728 16.88C72.8048 16.88 74.8568 19.22 74.8568 22.316C74.8568 25.412 72.8048 27.788 69.6728 27.788C66.5408 27.788 64.4888 25.412 64.4888 22.316Z" fill="currentColor"/>
<path d="M91.6446 13.568C89.2686 13.568 87.2526 14.792 86.3166 17.132H86.2086L85.9926 13.892H82.5726V30.776H86.3166V23.612C86.3166 19.112 88.2966 17.132 91.5366 17.132C92.1486 17.132 92.7606 17.204 93.1926 17.276V13.82C92.7246 13.64 92.2206 13.568 91.6446 13.568Z" fill="currentColor"/>
<path d="M103.018 31.172C107.554 31.172 110.974 28.364 111.334 24.332H107.518C107.122 26.528 105.358 27.788 103.054 27.788C99.9221 27.788 97.9421 25.52 97.9421 22.316C97.9421 19.148 99.9221 16.88 103.054 16.88C105.394 16.88 107.122 18.14 107.554 20.372H111.37C110.974 16.304 107.59 13.496 103.018 13.496C97.6541 13.496 94.1261 17.348 94.1261 22.316C94.1261 27.284 97.6541 31.172 103.018 31.172Z" fill="currentColor"/>
<path d="M130.966 22.244C130.966 16.988 127.438 13.496 122.362 13.496C117.106 13.496 113.542 17.204 113.542 22.352C113.542 27.536 117.07 31.172 122.47 31.172C127.006 31.172 129.994 28.688 130.678 25.556H127.078C126.646 27.068 124.99 28.112 122.506 28.112C119.554 28.112 117.682 26.564 117.322 23.504H130.858C130.93 23.108 130.966 22.748 130.966 22.244ZM122.362 16.52C125.026 16.52 126.718 17.924 127.15 20.804H117.358C117.826 17.96 119.626 16.52 122.362 16.52Z" fill="currentColor"/>
<path d="M134.106 30.776H137.85V5.57602H134.106V30.776Z" fill="currentColor"/>
<path d="M147.284 30.776H150.776L158.156 13.892H154.124L149.084 26.24H148.976L143.9 13.892H139.904L147.284 30.776Z" fill="currentColor"/>
<path d="M167.642 31.172C172.79 31.172 176.642 27.356 176.642 22.316C176.642 17.312 172.79 13.496 167.642 13.496C162.494 13.496 158.642 17.312 158.642 22.316C158.642 27.356 162.494 31.172 167.642 31.172ZM167.642 27.788C164.51 27.788 162.458 25.412 162.458 22.316C162.458 19.22 164.51 16.88 167.642 16.88C170.774 16.88 172.79 19.22 172.79 22.316C172.79 25.412 170.774 27.788 167.642 27.788Z" fill="currentColor"/>
<path d="M191.339 13.892L186.299 26.24H186.191L181.115 13.892H177.119L184.283 30.272L180.575 38.552H184.571L195.371 13.892H191.339Z" fill="currentColor"/>
<path fill-rule="evenodd" clip-rule="evenodd" d="M15.9788 0.626526L31.4444 8.35935V27.6648L15.9788 35.3977L0.513153 27.6648V8.35935L15.9788 0.626526ZM5.90762 9.92568C4.93867 10.4102 4.3266 11.4005 4.3266 12.4838V23.5404C4.3266 24.6237 4.93867 25.614 5.90762 26.0985L7.29265 26.791V16.4628C7.29265 13.5739 8.92482 10.933 11.5087 9.64107L18.4947 6.14805L17.2579 5.52962C16.4527 5.12703 15.5049 5.12703 14.6997 5.52962L5.90762 9.92568ZM14.6997 30.4946L12.2117 29.2505C11.5341 28.9118 11.1061 28.2192 11.1061 27.4617V24.2751L20.449 19.6037C23.0328 18.3117 24.665 15.6708 24.665 12.782V9.23319L26.05 9.92568C27.0189 10.4102 27.631 11.4005 27.631 12.4838V23.5404C27.631 24.6237 27.0189 25.614 26.05 26.0985L17.2579 30.4946C16.4527 30.8972 15.5049 30.8972 14.6997 30.4946ZM20.8516 9.2332V12.782C20.8516 14.2264 20.0355 15.5469 18.7435 16.1928L11.1061 20.0115V16.4628C11.1061 15.0183 11.9222 13.6979 13.2141 13.0519L20.8516 9.2332Z" fill="currentColor"/>
</svg>
