<svg height="39" viewBox="0 0 32 36" fill="none" xmlns="http://www.w3.org/2000/svg">
<path fill-rule="evenodd" clip-rule="evenodd" d="M15.9788 0.626526L31.4444 8.35935V27.6648L15.9788 35.3977L0.513153 27.6648V8.35935L15.9788 0.626526ZM5.90762 9.92568C4.93867 10.4102 4.3266 11.4005 4.3266 12.4838V23.5404C4.3266 24.6237 4.93867 25.614 5.90762 26.0985L7.29265 26.791V16.4628C7.29265 13.5739 8.92482 10.933 11.5087 9.64107L18.4947 6.14805L17.2579 5.52962C16.4527 5.12703 15.5049 5.12703 14.6997 5.52962L5.90762 9.92568ZM14.6997 30.4946L12.2117 29.2505C11.5341 28.9118 11.1061 28.2192 11.1061 27.4617V24.2751L20.449 19.6037C23.0328 18.3117 24.665 15.6708 24.665 12.782V9.23319L26.05 9.92568C27.0189 10.4102 27.631 11.4005 27.631 12.4838V23.5404C27.631 24.6237 27.0189 25.614 26.05 26.0985L17.2579 30.4946C16.4527 30.8972 15.5049 30.8972 14.6997 30.4946ZM20.8516 9.2332V12.782C20.8516 14.2264 20.0355 15.5469 18.7435 16.1928L11.1061 20.0115V16.4628C11.1061 15.0183 11.9222 13.6979 13.2141 13.0519L20.8516 9.2332Z" fill="currentColor"/>
</svg>
