<?xml version="1.0" standalone="no"?>
<!DOCTYPE svg PUBLIC "-//W3C//DTD SVG 20010904//EN"
 "http://www.w3.org/TR/2001/REC-SVG-20010904/DTD/svg10.dtd">
<svg version="1.0" xmlns="http://www.w3.org/2000/svg"
 width="94.000000pt" height="94.000000pt" viewBox="0 0 94.000000 94.000000"
 preserveAspectRatio="xMidYMid meet">
<metadata>
Created by potrace 1.14, written by Peter Selinger 2001-2017
</metadata>
<g transform="translate(0.000000,94.000000) scale(0.100000,-0.100000)"
fill="#000000" stroke="none">
<path d="M265 836 l-200 -101 -3 -262 -2 -263 208 -104 207 -103 208 103 207
104 -2 261 -3 260 -193 99 c-106 54 -200 101 -210 103 -9 3 -107 -41 -217 -97z
m262 -42 c2 -5 -42 -32 -97 -59 -55 -27 -114 -64 -131 -81 -47 -48 -56 -89
-57 -253 -1 -80 -1 -149 -1 -153 -2 -16 -23 -7 -50 20 l-28 27 -1 165 c0 93 4
177 9 192 16 40 274 169 320 159 18 -4 34 -11 36 -17z m257 -149 c3 -11 4 -95
3 -186 -2 -128 -5 -170 -16 -183 -22 -26 -266 -146 -297 -146 -30 0 -123 48
-125 64 -1 6 -3 33 -4 59 l-1 49 135 68 c75 38 149 81 165 96 44 42 66 99 66
177 l0 67 35 -22 c19 -13 36 -32 39 -43z m-179 -5 c-2 -35 -10 -71 -19 -85
-10 -15 -62 -48 -126 -80 -60 -30 -111 -55 -113 -55 -2 0 -1 100 2 126 3 25
41 54 136 102 55 28 105 51 111 51 8 1 11 -19 9 -59z"/>
</g>
</svg>
